# xmcd CD database file
#
# Track frame offsets:
#	150
#	13639
#	45218
#	67666
#	90690
#	109862
#	136230
#	153677
#	165876
#	186590
#	193058
#
# Disc length: 2888 seconds
#
# Revision: 2
# Processed by: cddbd v1.5.2PL0 Copyright (c) Steve Scherf et al.
# Submitted via: CDex 1.82
#
DISCID=860b460b
DTITLE=Various Artist - Native American Indians
DYEAR=1996
DGENRE=Native American
TTITLE0=How The West Was Lost
TTITLE1=Winter Ceremony
TTITLE2=Celebrate Wild Rice
TTITLE3=The Counter Clockwise Circle
TTITLE4=The Cradle Song
TTITLE5=Advice For The Young
TTITLE6=Wishes Of Happiness And Prosperity
TTITLE7=Elevation
TTITLE8=Intertribal Song To Stop The Train
TTITLE9=Heal The Soul
TTITLE10=Brandishing The Tomahawk
EXTD=YEAR: 1996
EXTT0=
EXTT1=
EXTT2=
EXTT3=
EXTT4=
EXTT5=
EXTT6=
EXTT7=
EXTT8=
EXTT9=
EXTT10=
PLAYORDER=
